<svg xmlns="http://www.w3.org/2000/svg" version="1.1" xmlns:xlink="http://www.w3.org/1999/xlink" xmlns:svgjs="http://svgjs.com/svgjs" width="90" height="90" x="0" y="0" viewBox="0 0 512 512" style="enable-background:new 0 0 512 512" xml:space="preserve" class=""><circle r="256" cx="256" cy="256" fill="#5cb85c" shape="circle" transform="matrix(0.84,0,0,0.84,40.96000000000001,40.96000000000001)"></circle><g transform="matrix(0.7,0,0,0.7,78.60000457763672,76.80000000000001)"><path fill="#ffce06" d="M438.5 255.998c0 102.936-79.02 186.375-176.503 186.375-97.481 0-176.497-83.439-176.497-186.375 0-102.934 79.016-186.371 176.497-186.371 97.483 0 176.503 83.437 176.503 186.371z" data-original="#ffce06" class=""></path><path fill="#562a15" d="M378.679 231.972c1.814 1.192 4.23-.163 4.23-2.433v-.054c0-13.597-10.435-24.624-23.31-24.624-12.879 0-23.314 11.027-23.314 24.624v.054c0 2.271 2.416 3.625 4.244 2.433 5.544-3.619 12.071-5.707 19.07-5.707 6.995.001 13.525 2.088 19.08 5.707zM183.469 231.972c1.824 1.192 4.233-.163 4.245-2.433v-.054c0-13.597-10.442-24.624-23.327-24.624-12.875 0-23.31 11.027-23.31 24.624v.054c.003 2.271 2.414 3.625 4.245 2.433 5.54-3.619 12.068-5.707 19.065-5.707 7.005.001 13.534 2.088 19.082 5.707zM171.748 284.234c-5.638 2.017-8.852 8.5-6.659 14.352 13.151 35.125 51.676 64.716 96.912 64.716 45.22 0 83.759-29.592 96.908-64.716 2.18-5.852-1.026-12.334-6.66-14.352-54.518-19.476-125.987-19.476-180.501 0z" data-original="#562a15" class=""></path><path fill="#cc352f" d="M213.455 351.28c14.447 7.517 30.978 12.021 48.546 12.021 17.56 0 34.083-4.504 48.543-12.021-13.382-10.642-30.205-17.038-48.543-17.038-18.341 0-35.176 6.396-48.546 17.038z" data-original="#cc352f" class=""></path></g></svg>