<svg height="256" viewBox="0 0 60 60" width="256" xmlns="http://www.w3.org/2000/svg"><g id="Icons"><path d="m58.99 32.97a7.005 7.005 0 0 0 -1.02-3.65l-5.04-8.25-1.35 1.35a1 1 0 0 1 -1.26.13l-1.77-1.18a1 1 0 0 0 -1.1 0l-1.77 1.18a1 1 0 0 1 -1.26-.13l-1.35-1.35.52-.86-6.67-9.82-2.3 4.59a1 1 0 0 1 -1.6.26l-2.31-2.31a1.008 1.008 0 0 0 -1.42 0l-2.31 2.31a1 1 0 0 1 -1.6-.26l-2.3-4.59-6.68 9.82.53.86-1.35 1.35a1 1 0 0 1 -1.26.13l-1.77-1.18a1 1 0 0 0 -1.1 0l-1.77 1.18a1 1 0 0 1 -1.26-.13l-1.35-1.35-5.04 8.25a7.015 7.015 0 0 0 -1.03 3.65v24.03a2.006 2.006 0 0 0 2 2h54a2.006 2.006 0 0 0 2-2z" fill="#95a5a5"/><path d="m43.59 20.21-.52.86-1.2 1.95-11.87 19.43-11.88-19.43-1.19-1.95-.53-.86 6.68-9.82 2.3 4.59a1 1 0 0 0 1.6.26l2.31-2.31a1.008 1.008 0 0 1 1.42 0l2.31 2.31a1 1 0 0 0 1.6-.26l2.3-4.59z" fill="#7f8c8d"/><path d="m36.92 10.39-2.3 4.59a1 1 0 0 1 -1.6.26l-2.31-2.31a1.008 1.008 0 0 0 -1.42 0l-2.31 2.31a1 1 0 0 1 -1.6-.26l-2.3-4.59 6.09-8.95a1 1 0 0 1 1.66 0z" fill="#ecf0f1"/><path d="m52.93 21.07-1.35 1.35a1 1 0 0 1 -1.26.13l-1.77-1.18a1 1 0 0 0 -1.1 0l-1.77 1.18a1 1 0 0 1 -1.26-.13l-1.35-1.35.52-.86 3.55-5.81a1 1 0 0 1 1.71 0z" fill="#ecf0f1"/><path d="m16.93 21.07-1.35 1.35a1 1 0 0 1 -1.26.13l-1.77-1.18a1 1 0 0 0 -1.1 0l-1.77 1.18a1 1 0 0 1 -1.26-.13l-1.35-1.35 4.08-6.67a.993.993 0 0 1 1.7 0l3.55 5.81z" fill="#ecf0f1"/><path d="m45 53c0-4.75 2.51-10.76 3.55-13.05l-1.55-2.02a10.4 10.4 0 0 0 -6.632 2.4 1.017 1.017 0 0 0 -.113 1.346 4.034 4.034 0 0 1 .611 3.381 3.954 3.954 0 0 1 -2.913 2.837 4 4 0 0 1 -2.842-7.42.988.988 0 0 0 .5-1.131 23.614 23.614 0 0 0 -4.3-7.839h-2.631a23.614 23.614 0 0 0 -4.295 7.839.988.988 0 0 0 .5 1.131 4 4 0 0 1 -2.842 7.42 3.954 3.954 0 0 1 -2.913-2.837 4.034 4.034 0 0 1 .611-3.381 1.017 1.017 0 0 0 -.113-1.346 10.4 10.4 0 0 0 -6.628-2.4l-1.55 2.02c1.04 2.29 3.55 8.3 3.55 13.05z" fill="#f0c419"/><g fill="#e57e25"><rect height="6" rx="2" width="34" x="13" y="53"/><circle cx="30" cy="49" r="1"/><circle cx="18" cy="49" r="1"/><circle cx="42" cy="49" r="1"/><circle cx="30" cy="30" r="2"/><circle cx="11" cy="38" r="2"/><circle cx="49" cy="38" r="2"/></g></g></svg>