<svg xmlns="http://www.w3.org/2000/svg"  version="1.1" xmlns:xlink="http://www.w3.org/1999/xlink" xmlns:svgjs="http://svgjs.com/svgjs" width="512" height="512" x="0" y="0" viewBox="0 0 512 512" style="enable-background:new 0 0 64 64" xml:space="preserve" class="faceicons"><circle r="256" cx="256" cy="256" fill="#5cb85c" shape="circle"></circle><g transform="matrix(0.7,0,0,0.7,79.20000457763672,79.11255340576173)"><path fill="#ffce06" d="M443.277 263.71c0 100.94-80.261 182.756-179.276 182.756-99.018 0-179.278-81.816-179.278-182.756s80.26-182.759 179.278-182.759c99.016 0 179.276 81.819 179.276 182.759z" data-original="#ffce06"></path><path fill="#562a15" d="M345.809 320.407h-163.62c-4.84 0-8.767-4-8.767-8.938 0-4.934 3.927-8.938 8.767-8.938h163.62c4.844 0 8.767 4.004 8.767 8.938-.001 4.939-3.924 8.938-8.767 8.938zM357.803 232.609c0 10.653-8.472 19.292-18.928 19.292-10.453 0-18.927-8.64-18.927-19.292 0-10.654 8.474-19.294 18.927-19.294 10.456 0 18.928 8.64 18.928 19.294zM208.045 232.609c0 10.653-8.477 19.292-18.926 19.292-10.453 0-18.929-8.64-18.929-19.292 0-10.654 8.476-19.294 18.929-19.294 10.449 0 18.926 8.64 18.926 19.294z" data-original="#562a15"  ></path></g></svg>