<svg xmlns="http://www.w3.org/2000/svg" width="64" height="64" version="1.1" xmlns:xlink="http://www.w3.org/1999/xlink" xmlns:svgjs="http://svgjs.com/svgjs" width="512" height="512" x="0" y="0" viewBox="0 0 512 512" style="enable-background:new 0 0 512 512" xml:space="preserve" class=""><circle r="256" cx="256" cy="256" fill="#5cb85c" shape="circle"></circle><g transform="matrix(0.7,0,0,0.7,76.80000457763674,76.80000000000001)"><path fill="#ffce06" d="M437.264 256.002c0 102.065-81.149 184.79-181.266 184.79-100.107 0-181.262-82.725-181.262-184.79 0-102.056 81.154-184.794 181.262-184.794 100.116 0 181.266 82.738 181.266 184.794z" data-original="#ffce06"></path><path fill="#562a15" d="M255.994 368.237c-19.939 0-36.112-16.488-36.112-36.832v-21.593c0-20.339 16.173-36.83 36.112-36.83 19.961 0 36.132 16.491 36.132 36.83v21.593c0 20.344-16.171 36.832-36.132 36.832z" data-original="#562a15"></path><path fill="#62c0eb" d="m356.245 215.292-23.952-8.531v211.826c17.613-6.942 33.77-16.837 47.9-29.108V206.761zM155.76 215.292l-23.943-8.531v182.718c14.136 12.271 30.282 22.166 47.887 29.108V206.761z" data-original="#62c0eb"></path><path fill="#562a15" d="M136.184 202.94c-1.882-1.183-4.367.158-4.367 2.423v.055c0 13.481 10.724 24.406 23.943 24.406 13.229 0 23.943-10.925 23.943-24.406v-.055c0-2.265-2.479-3.605-4.355-2.423a36.603 36.603 0 0 1-19.588 5.668c-7.179 0-13.887-2.082-19.576-5.668zM336.653 202.94c-1.878-1.183-4.349.158-4.36 2.423v.055c0 13.481 10.721 24.406 23.952 24.406s23.948-10.925 23.948-24.406v-.055c-.017-2.265-2.476-3.605-4.36-2.423-5.693 3.586-12.397 5.668-19.588 5.668s-13.897-2.082-19.592-5.668zM373.346 179.436c-.302 0-.604-.02-.91-.065-29.463-4.65-44.261-29.005-44.871-30.044-1.697-2.845-.806-6.546 1.988-8.272 2.789-1.735 6.401-.826 8.109 2.013.218.364 12.787 20.641 36.576 24.39 3.227.509 5.443 3.591 4.941 6.872-.45 2.98-2.965 5.106-5.833 5.106zM138.65 179.436c-2.864 0-5.382-2.126-5.833-5.107-.49-3.281 1.715-6.363 4.938-6.872 23.907-3.761 36.472-24.185 36.603-24.393 1.702-2.828 5.333-3.725 8.115-1.993 2.778 1.734 3.669 5.421 1.983 8.256-.626 1.039-15.424 25.394-44.89 30.044a6.3 6.3 0 0 1-.916.065z" data-original="#562a15"></path></g></svg>