<svg xmlns="http://www.w3.org/2000/svg" version="1.1" xmlns:xlink="http://www.w3.org/1999/xlink" xmlns:svgjs="http://svgjs.com/svgjs" width="512" height="512" x="0" y="0" viewBox="0 0 60 60" style="enable-background:new 0 0 256 256" xml:space="preserve"><g><path fill="#f29c1f" d="m15.15 52.33-6.41 6.36a1 1 0 0 1-1.69-.52l-.72-3.75a.991.991 0 0 0-.78-.8l-3.75-.75a1 1 0 0 1-.5-1.69l6.17-6.12zM52.53 45.06l6.17 6.12a1 1 0 0 1-.5 1.69l-3.75.75a.991.991 0 0 0-.78.8l-.72 3.75a1 1 0 0 1-1.69.52l-6.41-6.36z" opacity="1" data-original="#f29c1f"></path><path fill="#f0c419" d="m30 59 12.759-5.617a21.9 21.9 0 0 0 12.675-24.978L51.383 11A41.783 41.783 0 0 1 30 1 41.783 41.783 0 0 1 8.617 11L4.566 28.405a21.9 21.9 0 0 0 12.675 24.978z" opacity="1" data-original="#f0c419"></path><path fill="#f5efca" d="M18.853 49.722a17.95 17.95 0 0 1-10.391-20.41l3.456-14.852A46.944 46.944 0 0 0 30 6.2a46.951 46.951 0 0 0 18.082 8.26l3.457 14.852a17.952 17.952 0 0 1-10.392 20.41L30 54.629z" opacity="1" data-original="#f5efca"></path><g fill="#f0c419"><path d="m21.547 22.665 1.371 2.922a1.155 1.155 0 0 0 .872.651l3.159.483a1.156 1.156 0 0 1 .653 1.951l-2.357 2.416a1.156 1.156 0 0 0-.314.994l.546 3.35a1.156 1.156 0 0 1-1.7 1.2l-2.716-1.5a1.161 1.161 0 0 0-1.12 0l-2.716 1.5a1.156 1.156 0 0 1-1.7-1.2l.546-3.35a1.156 1.156 0 0 0-.314-.994L13.4 28.672a1.156 1.156 0 0 1 .653-1.951l3.159-.483a1.155 1.155 0 0 0 .872-.651l1.371-2.922a1.157 1.157 0 0 1 2.092 0zM40.547 22.665l1.371 2.922a1.155 1.155 0 0 0 .872.651l3.159.483a1.156 1.156 0 0 1 .653 1.951l-2.357 2.416a1.156 1.156 0 0 0-.314.994l.546 3.35a1.156 1.156 0 0 1-1.7 1.2l-2.716-1.5a1.161 1.161 0 0 0-1.12 0l-2.716 1.5a1.156 1.156 0 0 1-1.7-1.2l.546-3.35a1.156 1.156 0 0 0-.314-.994L32.4 28.672a1.156 1.156 0 0 1 .653-1.951l3.159-.483a1.155 1.155 0 0 0 .872-.651l1.371-2.922a1.157 1.157 0 0 1 2.092 0z" fill="#f0c419" opacity="1" data-original="#f0c419"></path></g></g></svg>