<svg height="24" viewBox="0 0 32 32" width="24" xmlns="http://www.w3.org/2000/svg"><g id="_09_Like" data-name="09 Like"><path d="m25 3.026c-2.886-1.017-6.115.206-9 3.357-2.865-3.159-6.1-4.389-8.979-3.383-2.998 1.048-5.021 4.324-5.021 8.154-.008 5.346 7.468 13.181 11.924 17.372a3.04 3.04 0 0 0 4.1.006c4.476-4.179 11.969-11.989 11.976-17.339.006-3.83-2-7.112-5-8.167z" fill="#fd4755"/></g><g id="Layer_52" data-name="Layer 52"><path d="m13.924 28.526c-4.456-4.191-11.932-12.026-11.924-17.372 0-3.83 2.023-7.106 5.021-8.154 2.883-1.007 6.113.223 8.985 3.382 2.88-3.151 6.109-4.375 9-3.357 3 1.055 5 4.337 5 8.167-.008 5.35-7.506 13.16-11.975 17.339a3.04 3.04 0 0 1 -4.107-.005zm-4.845-23.874c-3.331 0-5.079 3.595-5.079 6.505 0 3.308 4.218 9.257 11.3 15.913a.988.988 0 0 0 1.366 0c7.091-6.635 11.334-12.57 11.334-15.88 0-2.935-1.5-5.517-3.664-6.278-2.323-.82-5.011.471-7.552 3.637a1.006 1.006 0 0 1 -1.562 0c-2.037-2.557-4.171-3.897-6.143-3.897z"/></g></svg>