<svg id="Filled_Expand" viewBox="0 0 64 64" xmlns="http://www.w3.org/2000/svg" data-name="Filled Expand" width="24" height="24"><path d="m12 22a19.934 19.934 0 0 0 8.062 16.024 7.435 7.435 0 0 1 2.938 5.976v2h18v-2a7.435 7.435 0 0 1 2.938-5.976 19.934 19.934 0 0 0 8.062-16.024" fill="#ffe164"/><path d="m52 22a20 20 0 0 0 -40 0" fill="#ffe164"/><path d="m23 46h18a0 0 0 0 1 0 0v7a9 9 0 0 1 -9 9 9 9 0 0 1 -9-9v-7a0 0 0 0 1 0 0z" fill="#8e868c"/><path d="m42.5 22a10.46 10.46 0 0 0 -.37-2.724l2.285-1.776-2.315-4-2.669 1.088a10.479 10.479 0 0 0 -4.726-2.72l-.392-2.868h-4.626l-.394 2.865a10.479 10.479 0 0 0 -4.726 2.72l-2.667-1.085-2.315 4 2.285 1.773a10.212 10.212 0 0 0 0 5.448l-2.285 1.779 2.315 4 2.669-1.088a10.479 10.479 0 0 0 4.726 2.72l.392 2.868h4.626l.394-2.865a10.479 10.479 0 0 0 4.726-2.72l2.667 1.085 2.315-4-2.285-1.776a10.46 10.46 0 0 0 .37-2.724zm-10.5 3.5a3.5 3.5 0 1 1 3.5-3.5 3.5 3.5 0 0 1 -3.5 3.5z" fill="#fafaff"/><path d="m6.75 22a1.751 1.751 0 0 0 -1.75-1.75h-3a1.75 1.75 0 0 0 0 3.5h3a1.751 1.751 0 0 0 1.75-1.75z"/><path d="m62 20.25h-3a1.75 1.75 0 0 0 0 3.5h3a1.75 1.75 0 0 0 0-3.5z"/><path d="m53.867 9.375a1.751 1.751 0 0 0 2.391.641l2.6-1.5a1.751 1.751 0 0 0 .642-2.391 1.751 1.751 0 0 0 -2.391-.641l-2.6 1.5a1.751 1.751 0 0 0 -.641 2.391z"/><path d="m10.133 34.625a1.751 1.751 0 0 0 -2.391-.641l-2.6 1.5a1.751 1.751 0 0 0 -.642 2.391 1.751 1.751 0 0 0 2.391.641l2.6-1.5a1.751 1.751 0 0 0 .641-2.391z"/><path d="m5.144 8.516 2.6 1.5a1.751 1.751 0 0 0 2.391-.641 1.751 1.751 0 0 0 -.641-2.391l-2.6-1.5a1.751 1.751 0 0 0 -2.394.641 1.751 1.751 0 0 0 .644 2.391z"/><path d="m58.856 35.484-2.6-1.5a1.751 1.751 0 0 0 -2.391.641 1.751 1.751 0 0 0 .641 2.391l2.6 1.5a1.751 1.751 0 0 0 2.391-.641 1.751 1.751 0 0 0 -.641-2.391z"/><path d="m32 .25a21.775 21.775 0 0 0 -21.75 21.75 21.55 21.55 0 0 0 8.766 17.428 5.7 5.7 0 0 1 2.234 4.572v7.25h-.25a1.75 1.75 0 0 0 0 3.5h.393a10.75 10.75 0 0 0 21.214 0h.393a1.75 1.75 0 0 0 0-3.5h-.25v-7.25a5.7 5.7 0 0 1 2.234-4.572 21.55 21.55 0 0 0 8.766-17.428 21.775 21.775 0 0 0 -21.75-21.75zm0 60a7.263 7.263 0 0 1 -7.036-5.5h14.072a7.263 7.263 0 0 1 -7.036 5.5zm7.25-9h-14.5v-3.5h14.5zm3.643-14.629a9.213 9.213 0 0 0 -3.643 7.379v.25h-14.5v-.25a9.213 9.213 0 0 0 -3.643-7.379 18.081 18.081 0 0 1 -7.357-14.621 18.25 18.25 0 0 1 36.5 0 18.081 18.081 0 0 1 -7.357 14.621z"/><path d="m45.488 25.115-1.413-1.1a11.723 11.723 0 0 0 0-4.036l1.413-1.1a1.751 1.751 0 0 0 .442-2.257l-2.312-4.006a1.752 1.752 0 0 0 -2.177-.746l-1.649.673a12.258 12.258 0 0 0 -3.5-2.013l-.244-1.774a1.75 1.75 0 0 0 -1.735-1.506h-4.626a1.751 1.751 0 0 0 -1.734 1.512l-.244 1.774a12.258 12.258 0 0 0 -3.5 2.013l-1.649-.673a1.753 1.753 0 0 0 -2.177.746l-2.313 4.006a1.75 1.75 0 0 0 .443 2.257l1.413 1.1a11.723 11.723 0 0 0 0 4.036l-1.413 1.1a1.75 1.75 0 0 0 -.443 2.257l2.313 4.006a1.751 1.751 0 0 0 2.176.746l1.65-.673a12.258 12.258 0 0 0 3.5 2.013l.244 1.774a1.751 1.751 0 0 0 1.734 1.512h4.626a1.75 1.75 0 0 0 1.734-1.512l.244-1.774a12.258 12.258 0 0 0 3.5-2.013l1.65.673a1.75 1.75 0 0 0 2.176-.746l2.312-4.006a1.751 1.751 0 0 0 -.441-2.263zm-5.048-5.385a8.466 8.466 0 0 1 0 4.54 1.752 1.752 0 0 0 .617 1.836l1.079.838-.787 1.363-1.256-.507a1.747 1.747 0 0 0 -1.9.385 8.753 8.753 0 0 1 -3.938 2.264 1.749 1.749 0 0 0 -1.282 1.451l-.186 1.354h-1.574l-.186-1.354a1.749 1.749 0 0 0 -1.283-1.452 8.753 8.753 0 0 1 -3.938-2.264 1.748 1.748 0 0 0 -1.9-.385l-1.257.512-.786-1.363 1.079-.838a1.752 1.752 0 0 0 .617-1.836 8.466 8.466 0 0 1 0-4.54 1.752 1.752 0 0 0 -.617-1.836l-1.079-.838.786-1.363 1.256.513a1.757 1.757 0 0 0 1.9-.385 8.746 8.746 0 0 1 3.938-2.265 1.749 1.749 0 0 0 1.284-1.46l.186-1.354h1.574l.186 1.354a1.749 1.749 0 0 0 1.283 1.452 8.746 8.746 0 0 1 3.938 2.265 1.756 1.756 0 0 0 1.9.385l1.256-.512.786 1.362-1.079.838a1.752 1.752 0 0 0 -.617 1.84z"/><path d="m32 16.75a5.25 5.25 0 1 0 5.25 5.25 5.256 5.256 0 0 0 -5.25-5.25zm0 7a1.75 1.75 0 1 1 1.75-1.75 1.752 1.752 0 0 1 -1.75 1.75z"/></svg>