<svg xmlns="http://www.w3.org/2000/svg" version="1.1" xmlns:xlink="http://www.w3.org/1999/xlink" xmlns:svgjs="http://svgjs.com/svgjs" width="256" height="256" x="0" y="0" viewBox="0 0 60 60" style="enable-background:new 0 0 512 512" xml:space="preserve" class=""><g><path fill="#f29c1f" d="m15.15 52.33-6.41 6.36a1 1 0 0 1-1.69-.52l-.72-3.75a.991.991 0 0 0-.78-.8l-3.75-.75a1 1 0 0 1-.5-1.69l6.17-6.12zM52.53 45.06l6.17 6.12a1 1 0 0 1-.5 1.69l-3.75.75a.991.991 0 0 0-.78.8l-.72 3.75a1 1 0 0 1-1.69.52l-6.41-6.36z" opacity="1" data-original="#f29c1f" class=""></path><path fill="#f0c419" d="m30 59 12.759-5.617a21.9 21.9 0 0 0 12.675-24.978L51.383 11A41.783 41.783 0 0 1 30 1 41.783 41.783 0 0 1 8.617 11L4.566 28.405a21.9 21.9 0 0 0 12.675 24.978z" opacity="1" data-original="#f0c419" class=""></path><path fill="#f5efca" d="M18.853 49.722a17.95 17.95 0 0 1-10.391-20.41l3.456-14.852A46.944 46.944 0 0 0 30 6.2a46.951 46.951 0 0 0 18.082 8.26l3.457 14.852a17.952 17.952 0 0 1-10.392 20.41L30 54.629z" opacity="1" data-original="#f5efca" class=""></path><path fill="#f0c419" d="m30.9 17.847 3.2 6.566a1 1 0 0 0 .754.552l7.169 1.056a1 1 0 0 1 .557 1.7l-5.21 5.145a1 1 0 0 0-.283.878l1.226 7.25a1 1 0 0 1-1.456 1.049l-6.387-3.4a1 1 0 0 0-.94 0l-6.387 3.4a1 1 0 0 1-1.456-1.049l1.226-7.25a1 1 0 0 0-.283-.878l-5.2-5.144a1 1 0 0 1 .557-1.7l7.169-1.056a1 1 0 0 0 .754-.552l3.2-6.566a1 1 0 0 1 1.79-.001z" opacity="1" data-original="#f0c419" class=""></path></g></svg>