<svg height="512" viewBox="0 0 60 60" width="512" xmlns="http://www.w3.org/2000/svg"><g id="Icons"><path d="m15.15 52.33-6.41 6.36a1 1 0 0 1 -1.69-.52l-.72-3.75a.991.991 0 0 0 -.78-.8l-3.75-.75a1 1 0 0 1 -.5-1.69l6.17-6.12z" fill="#f29c1f"/><path d="m52.53 45.06 6.17 6.12a1 1 0 0 1 -.5 1.69l-3.75.75a.991.991 0 0 0 -.78.8l-.72 3.75a1 1 0 0 1 -1.69.52l-6.41-6.36z" fill="#f29c1f"/><path d="m30 59 12.759-5.617a21.9 21.9 0 0 0 12.675-24.978l-4.051-17.405a41.783 41.783 0 0 1 -21.383-10 41.783 41.783 0 0 1 -21.383 10l-4.051 17.405a21.9 21.9 0 0 0 12.675 24.978z" fill="#f0c419"/><path d="m18.853 49.722a17.95 17.95 0 0 1 -10.391-20.41l3.456-14.852a46.944 46.944 0 0 0 18.082-8.26 46.951 46.951 0 0 0 18.082 8.26l3.457 14.852a17.952 17.952 0 0 1 -10.392 20.41l-11.147 4.907z" fill="#f5efca"/><path d="m19.7 29.623 2.081 2.467a1.154 1.154 0 0 0 1.011.4l3.176-.351a1.156 1.156 0 0 1 1.136 1.715l-1.649 2.946a1.155 1.155 0 0 0 -.046 1.041l1.391 3.097a1.157 1.157 0 0 1 -1.333 1.6l-3.013-.748a1.157 1.157 0 0 0 -1.081.29l-2.235 2.154a1.157 1.157 0 0 1 -1.954-.718l-.339-3.377a1.155 1.155 0 0 0 -.56-.879l-2.9-1.723a1.157 1.157 0 0 1 .126-2.054l2.927-1.283a1.154 1.154 0 0 0 .674-.855l.569-3.177a1.156 1.156 0 0 1 2.019-.545z" fill="#f29c1f"/><path d="m42.184 30.165.568 3.177a1.156 1.156 0 0 0 .674.855l2.926 1.284a1.157 1.157 0 0 1 .126 2.054l-2.9 1.723a1.16 1.16 0 0 0 -.56.879l-.339 3.377a1.157 1.157 0 0 1 -1.953.718l-2.236-2.154a1.157 1.157 0 0 0 -1.081-.29l-3.013.748a1.157 1.157 0 0 1 -1.333-1.6l1.395-3.095a1.155 1.155 0 0 0 -.046-1.041l-1.652-2.944a1.157 1.157 0 0 1 1.136-1.715l3.176.351a1.154 1.154 0 0 0 1.011-.4l2.081-2.467a1.157 1.157 0 0 1 2.02.54z" fill="#f29c1f"/><path d="m30.805 11.619 1.983 3.981a1 1 0 0 0 .753.544l4.42.637a1 1 0 0 1 .553 1.709l-3.189 3.083a1 1 0 0 0 -.29.889l.754 4.361a1 1 0 0 1 -1.448 1.057l-3.969-2.069a1 1 0 0 0 -.925 0l-3.969 2.069a1 1 0 0 1 -1.447-1.057l.754-4.361a1 1 0 0 0 -.291-.889l-3.188-3.083a1 1 0 0 1 .552-1.709l4.421-.637a1 1 0 0 0 .753-.544l1.982-3.985a1 1 0 0 1 1.791.004z" fill="#f0c419"/></g></svg>